<svg xmlns="http://www.w3.org/2000/svg" width="868" height="417.559" viewBox="0 0 868 417.559"><path d="M271.864,348v-1.454h3.275V331.62h-3.275V329.8h12.374v1.82h-3.275v14.923h2.548c6.551,0,8.371-1.82,8.371-6.553h1.82V348C293.7,348.361,271.864,348,271.864,348Zm61.142.364c-6.185,0-12.01-4.367-12.01-9.464s5.1-9.826,12.01-9.826c7.279,0,12.374,4.733,12.374,9.826S340.285,348.361,333.006,348.361Zm4-16.741c-.728-.728-1.82-.728-4-.728a6.565,6.565,0,0,0-3.639.728c-1.454,1.454-2.184,2.548-2.184,7.279,0,5.094.728,5.825,2.184,6.915a6.59,6.59,0,0,0,3.639.725c2.185,0,3.275,0,4-.725,1.82-1.1,2.548-1.821,2.548-6.915C339.559,334.167,338.829,333.074,337.01,331.62Zm60.05,0v16.741h-3.275L377.773,331.62v14.922h3.272V348h-8.371v-1.456h2.913V331.62h-2.913V329.8h10.918l11.648,12.372V331.62h-4V329.8h9.1v1.82Zm94.261,16.741c-6.553,0-12.372-4.367-12.372-9.464s5.094-9.826,12.372-9.826c6.913,0,12.738,4.733,12.738,9.826S498.234,348.361,491.321,348.361Zm3.639-16.741c-.366-.728-1.82-.728-3.639-.728-1.454,0-2.546,0-3.274.728-1.82,1.454-2.548,2.548-2.548,7.279,0,5.094.728,5.825,2.548,6.915.728.725,1.82.725,3.274.725,1.82,0,3.274,0,3.639-.725,2.185-1.1,2.913-1.821,2.913-6.915C497.873,334.167,497.144,333.074,494.96,331.62Zm60.777,0v16.741h-2.546L536.448,331.62v14.922h3.279V348h-8.372v-1.456h3.274V331.62h-3.274V329.8h10.918l11.645,12.372V331.62h-4V329.8h9.1v1.82ZM438.184,348H426.9v-1.454h2.913V331.62H426.9V329.8h11.284c7.279,0,12.372,4,12.372,9.1S445.462,348,438.184,348Zm4.005-15.649c-.726-.728-1.82-.728-4.005-.728h-2.548v14.923h2.548a5.166,5.166,0,0,0,4.005-1.454c1.82-1.093,2.546-1.093,2.546-6.187C444.735,334.894,444.008,333.8,442.189,332.348ZM54.226,283.942H0V281.4H14.194V228.624H0v-3.275H48.406c15.649,0,27.3,4.367,27.3,14.194,0,8.371-9.826,12.738-21.836,12.738,14.558,0,27.66,5.823,27.66,16.01,0,8.01-9.1,15.651-27.3,15.651ZM42.947,228.624H31.3v22.564H45.858c8.371,0,14.922-1.456,14.922-11.646,0-9.826-6.554-10.918-17.833-10.918ZM45.493,254.1H31.3v27.3H45.857c9.1,0,19.651-1.82,19.651-13.105C65.509,255.558,57.139,254.1,45.493,254.1ZM371.22,283.942H316.994V281.4h14.192V228.624H316.994v-3.275h48.4c15.649,0,27.3,4.367,27.3,14.194,0,8.371-9.826,12.738-22.2,12.738,14.922,0,28.022,5.823,28.022,16.01,0,8.01-9.1,15.651-27.294,15.651Zm-11.645-55.317H347.93v22.564h14.922c8.371,0,14.923-1.456,14.923-11.646C377.773,229.716,371.22,228.624,359.576,228.624Zm2.546,25.476H347.928v27.3h14.922c9.1,0,18.563-1.82,18.563-13.105,0-12.733-7.646-14.19-19.29-14.19ZM180.151,228.624v36.03c0,14.922-12.372,21.107-32.027,21.107-14.192,0-36.394-3.639-36.394-20.382V228.621H97.538v-3.275h45.857v3.275H128.473v36.758c0,14.194,11.645,16.013,22.563,16.013,13.831,0,25.841-4.367,25.841-16.743V228.621H162.319v-3.275h32.755v3.275l-14.923,0Zm112.822,57.137c-9.462,0-21.109-4.366-21.109-16.743v-3.639c0-7.279-6.551-10.553-16.012-10.553H239.109V281.4h13.466v2.546H207.81V281.4H222V228.624H207.81v-3.275h49.86c17.469,0,27.66,6.187,27.66,14.558,0,8.007-9.1,13.831-21.836,13.831,18.2,0,25.841,7.644,25.841,16.012V276.3c0,3.639,1.82,6.187,6.553,6.187,2.912,0,5.094-1.092,6.185-2.548l2.185,2.548C301.706,284.673,298.432,285.762,292.973,285.762Zm-41.853-57.137h-12.01v22.928h12.738c9.826,0,16.743-1.82,16.743-11.646C268.59,231.172,263.492,228.624,251.119,228.624Zm467.3,57.137c-9.826,0-20.745-4.366-20.745-16.743v-3.639c0-7.279-6.912-10.553-16.741-10.553H664.19V281.4h13.464v2.546h-44.4V281.4H647.45V228.624H633.258v-3.275h50.225c16.741,0,27.66,6.187,27.66,14.558,0,8.007-9.462,13.831-22.564,13.831,18.925,0,25.843,7.644,25.843,16.012V276.3c0,3.639,2.548,6.187,6.551,6.187,3.275,0,5.1-1.092,7.279-2.548l1.092,2.548C726.789,284.673,723.517,285.762,718.418,285.762Zm-41.853-57.137H664.193v22.928h12.738c9.825,0,17.471-1.82,17.471-11.646C694.4,231.172,688.575,228.624,676.565,228.624Zm-67.329,57.137c-9.464,0-21.109-4.366-21.109-16.743v-3.639c0-7.279-7.279-10.553-16.743-10.553H555.007V281.4h13.83v2.546H524.075V281.4h14.192V228.624H524.075v-3.275h49.858c17.471,0,27.663,6.187,27.663,14.558,0,8.007-9.826,13.831-21.836,13.831,17.83,0,25.84,7.644,25.84,16.012V276.3c0,3.639,1.82,6.187,6.187,6.187,3.274,0,5.459-1.092,6.551-2.548l1.456,2.548C617.244,284.673,614.335,285.762,609.236,285.762Zm-41.853-57.137H555.01v22.928h13.1c9.462,0,16.741-1.82,16.741-11.646C584.852,231.172,579.031,228.624,567.383,228.624ZM417.806,283.942V281.4h14.558V228.624H417.806v-3.275h77.88v18.564h-3.272c0-7.646-5.826-15.286-20.384-15.286H448.741v23.656h9.1c10.918,0,14.19-5.825,14.19-10.918h3.275v25.11H472.03c0-5.094-3.272-10.917-14.19-10.917h-9.1V281.4H472.4c18.923,0,25.84-8.371,25.84-17.471h3.275v20.017l-83.707,0Zm399.242-55.317-26.2,30.935V281.4H805.4v2.546H759.544V281.4h14.925V258.832l-26.935-30.207H731.156v-3.275h49.132v3.275H765.37l24.746,26.2,23.292-26.2H799.215v-3.275H830.15v3.275ZM101.54,414.234h2.548V394.218h.729l6.913,20.017h2.546l8.008-20.017v20.017h2.91V390.578h-4.366L113.186,410.6l-7.279-20.017H101.54Zm37.486,0h16.013v-3.275H141.572v-7.643h12.738v-2.548H141.572v-7.644h13.467v-2.546H139.026Zm28.387,0h3.274v-19.29l12.012,19.29h3.275V390.578h-2.549v19.289l-12.738-19.289h-3.274ZM200.9,387.3h2.548c0,1.82-.728,4.367-2.548,4.367v1.82c3.275,0,4.367-2.912,4.367-6.187v-5.092H200.9Zm36.03,9.462c0-5.1-3.639-6.915-9.1-6.915-3.639,0-8.371,1.82-8.371,6.915,0,4,4,5.092,8.005,5.823,3.639,1.456,7.644,2.185,7.644,5.094,0,3.274-3.275,4-6.551,4S222,410.6,222,405.862h-2.912c0,5.825,4.367,9.1,9.464,9.1,4.731,0,9.825-2.546,9.825-7.644,0-4.731-4-5.823-8.005-6.551-3.639-1.456-7.644-1.456-7.644-4.367,0-3.274,2.548-4,5.1-4,3.274,0,5.823,1.092,5.823,4.367l3.277,0Zm35.665,17.469h3.279v-21.11h7.641v-2.546H264.585v2.546h8.005Zm16.017,0h3.274l2.548-7.646h10.19l2.548,7.646h3.275l-8.735-23.656h-4Zm10.918-21.11,4,10.92h-7.643Zm22.2,21.11h2.913V390.578h-2.913Zm16.743,0h15.286v-3.275H341.379V390.578h-2.913Zm25.11-12.374c0,6.554,3.639,13.1,11.646,13.1,7.643,0,11.645-6.549,11.645-13.1,0-6.185-4-12.01-11.645-12.01-8.007,0-11.646,5.823-11.646,12.01Zm3.279,0c0-4.366,2.546-9.462,8.371-9.462s8.371,5.092,8.371,9.462c0,5.459-2.548,9.826-8.371,9.826s-8.371-4.367-8.371-9.826Zm34.574-.364v-8.372H409.8c2.912,0,4,1.093,4,3.641,0,3.272-2.548,4.731-5.094,4.731h-7.28Zm-2.913,12.738h2.913v-10.19h8.005c3.275,0,3.639,1.818,4.367,4.366,0,2.185-.728,4.731.728,5.825H417.8c-1.456-1.82-.728-4.367-1.456-6.915,0-2.184-.728-4-3.275-4.731a6.373,6.373,0,0,0,4.005-6.187c0-4-2.548-5.823-7.279-5.823H398.516v23.656Zm31.3,0h16.377v-3.275h-13.1v-7.643h12.372v-2.548H433.09v-7.644h13.1v-2.546H429.815Zm28.386,0h8.371c8.007,0,11.646-4.367,11.646-12.738,0-8.007-4.367-10.918-11.646-10.918H458.2Zm3.279-21.11h5.092c5.826,0,8.735,3.274,8.735,8.733,0,9.1-5.825,9.1-8.735,9.1h-5.092Zm65.142,4.369c-.364-5.094-4.366-7.644-9.463-7.644-7.279,0-10.918,5.094-10.918,12.01,0,7.279,2.911,13.1,10.918,13.1,5.823,0,9.463-4,10.19-9.825h-3.274c-.726,4-2.546,6.551-6.913,6.551-5.825,0-8.007-4.367-8.007-9.826,0-5.092,2.185-9.462,8.007-9.462,3.274,0,5.823,1.092,6.187,5.092l3.272,0Zm13.105,16.741H555.01v-3.275H543V390.578h-3.272Zm25.109-12.374c0,6.554,4.007,13.1,11.646,13.1s11.646-6.549,11.646-13.1c0-6.185-4.005-12.01-11.646-12.01s-11.646,5.823-11.646,12.01Zm3.277,0c0-4.366,2.548-9.462,8.371-9.462s8.371,5.092,8.371,9.462c0,5.459-2.546,9.826-8.371,9.826s-8.371-4.367-8.371-9.826ZM605.6,414.234h3.279v-21.11h7.639v-2.546H597.228v2.546H605.6Zm21.836,0h3.279V403.316h12.371v10.918H646V390.578h-2.913v10.19H630.712v-10.19h-3.279Zm32.394,0h2.91V390.578h-2.91Zm16.738,0h3.279v-19.29l12.008,19.29h4V390.578h-3.272v19.289l-12.738-19.289h-3.279Zm50.952,0h1.82V401.5h-10.19v2.548h7.643c0,4.366-2.546,7.643-7.643,7.643s-8.371-4.367-8.371-9.1c0-5.1,2.548-10.19,8.371-10.19,3.639,0,6.187,1.092,6.915,5.092h3.272c-.728-5.823-5.092-7.643-10.19-7.643-8.007,0-11.646,5.823-11.646,12.738,0,5.825,4.367,12.372,11.646,12.372a10.023,10.023,0,0,0,7.643-4l.731,3.282ZM854.536,200.6a13.9,13.9,0,0,0-14.194,13.83c0,7.646,6.551,13.466,14.194,13.466A13.21,13.21,0,0,0,868,214.431a13.519,13.519,0,0,0-13.464-13.83Zm-.729,2.184h.728c5.823,0,10.918,5.094,10.918,11.645a10.949,10.949,0,0,1-10.918,10.918,10.51,10.51,0,0,1-10.918-10.918c0-6.549,4.367-11.281,10.19-11.645Zm-4.369,3.641v15.649h1.82v-6.553H853.8l4.731,6.553h2.548l-4.733-7.279c2.913,0,4.005-1.821,4.005-3.641,0-3.274-1.82-4.73-5.094-4.73Zm1.82,6.548v-4.366h3.276c2.548,0,4,.364,4,2.546,0,1.093-1.454,1.82-3.274,1.82Zm-520.2-201.3s20.436-18.7,65.351,3.085c-1.543,6.362-6.362,11.565-6.362,11.565S374.432,19,370.384,23.814c-4.241,4.626-11.567,4.047-11.567,4.047-7.324-3.66-27.76-16.191-27.76-16.191Zm63.809,15.616s0-5.207,9.063-5.207a24.915,24.915,0,0,0-6.747-1.157c2.313-3.471,2.7-5.4,10.6-5.4s11.374,7.711,11.374,7.711c-1.928,2.122-1.543,7.133-.385,8.675-5.205-1.157-14.844-6.939-15.616-4.624h-8.293Zm26.217-5.205s23.134,8.675,49.735,7.518,42.6,19.278,42.6,19.278A65.914,65.914,0,0,0,538.1,60.058c-11.371,0-12.531.385-15.229.964-2.7.385-11.761-3.277-17.929-7.517-6.362-4.241-37.2-5.977-37.2-5.977h-23.9s-17.353-.385-20.821-13.3-1.93-12.148-1.93-12.148Zm109.69,41.64s9.831,4.241,12.144,10.216c7.712,3.083,15.614,4.241,18.313,5.783,2.889,1.54,6.362,2.121,9.446,2.7-2.507-1.158-3.277-4.05-5.592-5.4-4.432-2.7-8.481-.385-12.722-4.626-3.085-3.275-5.013-7.712-9.831-8.673C539.062,62.949,534.049,62.177,530.774,63.72Z" data-name="Path 3053" transform="translate(0 2.595)"/><path d="M252.105,31.623h-8.29S241.693,27,253.837,27C252.105,28.925,251.141,29.5,252.105,31.623Zm12.144-1.734s-9.252-.772-10.024.385a1.359,1.359,0,0,0,.385,1.926l9.254.385.385-2.7Zm1.737,4.819s6.554-2.122,12.144,8.482c-.385,4.432-4.434,10.215-5.205,10.215s-5.4,3.085-6.941,5.975c0-5.205,1.156-7.133,3.083-9.831s1.543-10.216.773-11.373a25.329,25.329,0,0,0-3.855-3.468Zm-5.978-23.9s10.41-.577,14.651,4.626,8.29,1.543,8.29,1.543.579-4.626-3.085-7.326a26.584,26.584,0,0,1,8.29,8.866c.577,1.158,6.939,4.819,6.939-4.624,4.05,4.241,4.626,4.624,5.207,6.166.383,1.736,5.59,7.326,10.41,3.277,4.626-4.241,5.205-9.446-5.205-13.687,1.541,5.205.964,9.446-3.664,4.819-4.819-4.819-9.448-6.941-15.614-4.819-7.327-2.5-16.774-3.659-26.22,1.16Z" data-name="Path 3054" transform="translate(150.472 4.618)"/><path d="M256.736,46.131s2.892,1.543,5.59-3.662c3.085,0,9.063-1.928,9.446-10.41,1.542,7.323,1.542,18.312,1.158,19.853l-.387,1.541s3.856,1.157,5.4-2.313c4.241,2.313,68.628,39.519,68.628,39.519L345.413,92.2,274.472,56.346A51.213,51.213,0,0,0,266.182,55a4.376,4.376,0,0,0,3.085-3.856s-6.941,2.313-7.324,2.313c.383-3.471,0-5.783-1.543-5.783s1.157,5.783-3.664,5.783c-4.626,0-.385-3.466,0-7.323Z" data-name="Path 3055" transform="translate(157.214 19.797)"/><path d="M318.178,65.158V55.712c0-1.543,5.014,4.241,5.783,7.9C321.647,64.387,319.719,64,318.178,65.158Zm1.542,3.468s2.315-5.973,7.518-.772c5.013,5.013,1.928,4.241,1.928,4.241S321.263,68.626,319.719,68.626ZM202.707,9.446l-1.351,2.7,65.928,35.278,1.543-2.315ZM183.814,0l9.061,9.446s6.556,2.7,6.556-2.7C199.431,1.157,189.212,2.121,183.814,0Zm30.459,46.651s-8.1,2.7-9.254-7.324C210.417,43.568,212.344,45.494,214.273,46.651Zm-10.025-9.639s8.29,5.014,10.988,6.363C213.115,38.94,219.864,38.94,204.248,37.012ZM213.5,48.964s-5.4.772-5.781,7.133c4.624,1.541,6.941,2.7,6.941,5.4-3.471,1.157-6.556-1.16-7.714-2.316-4.819.385-13.3.773-13.3.773S205.018,64,210.417,64c-1.158,2.7-3.471,3.471-3.471,5.783s-.385,10.6-.385,10.6,1.928-1.928,1.543.385a1.988,1.988,0,0,1-2.313,1.926s-3.664,5.977-.773,7.906c2.7,1.925,6.556-3.277,6.556-3.277s4.434-.385,5.59-.385,1.543-5.013.385-7.326.385-6.362.385-6.362c1.156,4.819,2.7,4.819,4.241,4.819S227.188,64,227.188,64s4.047-10.988-7.324-13.88c-3.471,0-5.207,0-5.207,2.122C213.115,51.858,213.5,48.964,213.5,48.964Zm2.894,40.483S212.73,88.1,210.8,91.375C213.887,92.532,215.622,91.76,216.394,89.447Z" data-name="Path 3056" transform="translate(113.508)"/><path d="M205.624,59.88s3.858.387,4.241-3.47c2.7,1.54,5.205,4.24,3.856,5.781-1.157,1.736-8.1,5.59-3.083,11.374,5.205,5.977,9.831,1.736,11.371,1.736-4.624-1.349-10.215,0-7.711-5.205,2.313-5.014,3.856-5.784,3.856-5.784-1.926-1.541-1.926-6.363-1.926-6.363s-5.207-4.241-9.831-4.241c.768,3.088,1.153,5.014-.773,6.172Zm10.6-17.929s-.385,3.856-3.277,4.626c2.122,3.662,1.349,5.59,1.349,5.59,3.085.383,2.7-4.434,2.7-4.434Z" data-name="Path 3057" transform="translate(126.976 25.905)"/><path d="M213.652,35.806s4.432,6.363,4.819,11.761c.385,5.59,1.928,3.275,1.928,3.275s1.156,20.243,1.156,23.134c0,2.7,1.926,2.7,1.926,2.7,10.024-4.049,17.929-15.036,28.145-17.736-4.626-8.482-11.18-19.855-16-21.785-4.626-2.121-14.072-4.819-21.974-1.349Zm-1.158-2.313s-1.54,1.541-5.4-2.313-3.856-2.892-3.856-2.892,5.013-1.734,6.168-1.349S210.566,32.336,212.494,33.493Zm3.662-1.157s-1.349,1.349-3.855-2.7c-2.7-4.241-2.7-3.083-2.7-3.083s4.05-1.543,4.819-1.158c.773.579.388,5.592,1.737,6.941Zm16.965,1.928a23.347,23.347,0,0,1-.772-6.554c0-2.121-.964-2.7-5.4-3.085.964,2.509,1.734,3.665,1.349,4.819-.192,1.349-.773.772-3.277-4.049-2.121-1.541-3.471-.773-3.471-.773s2.7,4.626,3.085,7.518c3.471.2,7.327,1.352,8.484,2.124ZM224.638,32.144Zm-9.252-7.326h.193C215.386,24.625,215.386,24.818,215.386,24.818Zm7.132,5.784c-.385-.964-1.349-1.736-1.734-2.7-.193-1.157.192-2.313-.577-3.085-.577-.576-3.664-.192-4.626,0,.193.192.577,1.157,1.349,4.049a7.186,7.186,0,0,0,1.349,3.085h4.434a1.224,1.224,0,0,0-.194-1.351Zm-.192,49.543c5.783-2.892,10.988-6.941,16.385-10.41,3.856-2.506,9.446-7.133,14.265-7.133,3.085,0,1.157,4.626-2.121,4.626,2.121,1.54,2.891,2.313,1.54,2.7-1.156.383-3.47,3.083-5.781,1.926a2.2,2.2,0,0,0-3.085,2.892c.772,1.543-2.7,4.241-6.747,3.085-3.856-1.157-3.085,3.085-3.085,5.013-3.855,1.928-11.373.385-11.373.385V80.145Zm-.772,1.926a1.747,1.747,0,0,1-3.47,0,1.558,1.558,0,0,1,1.734-1.349C220.784,80.722,221.554,81.3,221.554,82.071Zm33.735-9.831s-9.06,5.59-10.988,7.133S236.784,84,235.628,84s5.59,2.509,11.759,2.509C248.158,83.615,246.615,80.917,255.288,72.24Zm.773,3.279s-5.205,3.47-5.205,8.1l5.59,1.157s3.083-3.471,5.013-3.471c-3.086-1.926-4.628-2.7-5.4-5.781Zm-1.928,12.528a20.415,20.415,0,0,0,5.4-4.432c1.928-2.315,3.858.383,3.858.383S263,90.363,262.231,91.9A88.476,88.476,0,0,1,254.134,88.047Zm-19.278-53.59s1.157-5.4,0-7.9a10.466,10.466,0,0,1,3.856,3.083l-.385,6.168Z" data-name="Path 3058" transform="translate(125.504 15.086)"/><path d="M224.931,33.965s4.432,3.855,4.819,5.207c2.7-1.349,4.819-4.241,4.819-5.014a35.843,35.843,0,0,1-2.7-3.662c-.385,3.47-1.349,4.819-2.315,4.819s.192-6.554.192-6.554c-1.542-.579-3.662-1.349-3.662-1.349s.773,6.554-1.155,6.554Zm6.747,7.326a9.706,9.706,0,0,1,1.736,2.313,17.494,17.494,0,0,0,4.819-6.362L236.111,35.7s-2.122,3.662-3.858,4.819l-.576.772Zm3.277,4.049S239,41.483,239,40.134c2.315,2.506,2.315,3.47,2.315,3.47s-3.471,3.665-4.626,3.665C235.34,47.268,234.955,45.34,234.955,45.34ZM270.81,56.906s-.772-2.892-1.734,1.543c-1.158,4.432-1.926,4.241-2.892,3.855,0,2.122-4.047,6.168-10.216,13.495a15.718,15.718,0,0,0,3.277,0c.193-.192.385-.192.576-.385a6.476,6.476,0,0,0,5.4-6.166q1.675-2.483,3.277-5.014c.578,11.18-12.337,15.038-14.651,16-2.315.772-2.315,6.362-2.7,11.18a31.926,31.926,0,0,1,5.592.772c0-3.47,5.974-7.326,5.974-7.326-5.205,0-7.9,4.626-7.9,4.626s-1.543,1.157-1.736,0c-.192-.964.577-4.626,1.736-7.517,16.772-5.784,15.806-14.072,16.58-16.387s-.577-8.678-.577-8.678Z" data-name="Path 3059" transform="translate(138.899 16.927)"/><path d="M251.434,66.85s2.313-5.592,3.855-5.975c1.736-.577,3.471-11.761,3.471-13.495,1.736-.772,3.664-.383,4.626-1.734,1.158,3.856,1.349,12.531.385,12.531-1.157,0-3.275,1.349-4.241,3.47-.964,1.928-3.855,2.506-3.855,2.506A3.591,3.591,0,0,1,251.434,66.85Zm5.59-1.349s3.277-1.541,4.434-2.892c.964-1.349,4.047-1.54,4.047-1.54s3.664,5.781,6.554,6.747a19.35,19.35,0,0,0-6.747,8.1,23.307,23.307,0,0,1-3.471,5.205l-2.892.385s-5.4-.577-8.288,2.506c-.577-5.4-.773-13.3,4.624-15.036,5.595-1.926,1.739-3.47,1.739-3.47Zm12.916-3.47a7.939,7.939,0,0,0-3.277-6.941c0-5.59.192-7.133,2.506-7.133s7.518,1.157,7.518,4.049c0,2.7-4.434,10.025-6.747,10.025Zm-3.662-5.205s.385,3.083,2.122,3.47a4.588,4.588,0,0,1-4.626-1.349s2.311-.192,2.5-2.121Z" data-name="Path 3060" transform="translate(154.613 28.187)"/><path d="M301.427,61.4s-1.927,10.022-5.4,12.723c-3.277,2.891,2.506,1.734,2.506,1.734s-.385,2.506-5.014,6.168a5.488,5.488,0,0,0-.964,7.9s1.349,4.626-3.275,1.926c.772,3.662.966,4.432-1.734,4.241,1.543,2.7,7.324,5.973,10.8.383,3.277-5.4,6.362-12.722,7.326-14.457-3.085.964-2.7,1.734-6.748.576-4.24-1.157,6.363-3.471,9.061-9.639a27.306,27.306,0,0,1,3.664-4.432c-2.7-.773-3.664-.192-2.506-2.507-2.892.387-3.277,2.122-5.205,1.543s2.121-3.471,2.121-3.471a11.493,11.493,0,0,1,5.207-.385c-2.892-2.892-6.939-2.313-9.255-2.313h-.579Zm-30.844,29.5s5.59,0,9.06-3.664c4.626-.772,7.133,0,7.518,2.892.385,2.7-2.892,3.47-2.892,4.626s3.664,5.781,1.736,5.781c-2.122,0-4.049,1.736-9.063-2.7-5.205-4.241-6.362-2.313-6.362-2.313Zm10.8,12.723a9.643,9.643,0,0,1-4.049-3.47c-1.349-2.122-7.515-1.349-7.9.192-.385,1.734-2.7,11.18-4.434,13.108-1.736,1.736-3.085,10.8-3.855,12.144-.964,1.541,5.973,3.855,5.973,3.855s2.122-7.9,6.556-12.337c4.241-4.628,7.711-12.144,7.711-13.493Zm-8.29-17.736s-3.854-1.157-5.4-2.892,2.892-2.313,4.434-1.541c1.736.772,1.157,2.892.964,4.434ZM270,96.481s-3.855,6.168-4.432,8.675c-.579,2.7-2.7-.577-2.7-.577s3.664-7.711,4.432-8.29S270,96.481,270,96.481Zm-8.1,12.337s4.241-.191,2.506,2.892c-1.542,3.085-3.856.966-3.856.966A6.314,6.314,0,0,0,261.907,108.818Zm-.192,7.518s-4.432,12.144-4.432,15.806-4.819-1.926-6.556-1.926c2.315-4.626,7.326-13.88,9.063-13.88Zm3.856,15.229s-4.626-1.543-5.592-2.313c-.773-.773-2.7,6.554,1.734,6.747s4.626-.966,4.434-3.665Zm23.711-31.42s-11.953,16.77-13.878,18.121c3.662,1.54,9.446,4.24,11.371,2.313,1.736-1.736,8.482-13.495,8.867-16.193C295.837,101.879,291.98,101.3,289.282,100.145Zm-19.857,28.722s1.543-6.169,4.434-6.169,10.215-1.157,13.686,2.316a30.25,30.25,0,0,1,7.324,2.892c1.734.964,3.664,2.7,7.324,2.7a27.144,27.144,0,0,1,6.747.964c-6.362.577-11.564.193-13.3.772-1.928.577-6.363,2.7-8.675,2.7s-14.844-1.349-17.542-2.7l-2.506-1.349c9.061.385,14.263,2.122,16.578.385,2.51-1.931-14.069-2.509-14.069-2.509ZM251.5,125.205s-17.351.964-19.278.576c4.819,2.122,16.385,3.856,17.349,3.856,1.155,0,1.928-4.432,1.928-4.432Zm-40.87-70.75s3.664.385,4.819,3.275c.964,2.892-2.7-.383-2.7-.383l-2.121-2.892Zm38.748-13.686s-4.241-1.157-4.432-.385,2.121,3.662,2.121,5.783,0-4.241,2.121-4.626Z" data-name="Path 3061" transform="translate(130.067 24.774)"/><path d="M255.984,68.449s-24.1-1.351-27.567-1.351c-3.277,0-8.1,10.022-9.061,12.722l-.964,2.892c-.577-.383-1.542.577-2.7,2.122-.966,1.542-3.856,1.925-3.856,1.925s-10.024,1.736-15.421-.383c-5.592-1.926-7.326,7.324-8.29,7.324-1.157,0,.772,8.1.772,8.1s2.7,23.326,4.434,23.519c1.542.192,4.049-.772,5.975,3.858,1.736,4.819,11.759,4.819,11.759,4.819l.194-4.241s-1.736,0-3.664-2.121c-1.736-2.122-3.855-6.557-8.29-8.29s1.543-2.122,1.543-2.122a28.272,28.272,0,0,0-5.783-5.205c-3.856-2.506-2.121-13.108-.964-13.88a11.951,11.951,0,0,0,2.892-4.819c.191-1.736,16.578.964,19.853-1.158,3.085-2.121,4.434.194,1.157-3.855-3.083-4.241,14.072-.576,14.072-.576s9.639.191,13.88,2.121c4.434,1.928,21.976,8.29,24.29,10.216S277,81.555,279.7,78.086s-20.821-9.061-20.821-9.061-8.866,18.121-10.216,18.121c-1.158,0-1.543-.964,7.326-18.7Z" data-name="Path 3062" transform="translate(115.943 41.434)"/><path d="M242.931,101.217s-7.517-2.313-8.29-4.819c-.772-2.7,10.6,4.819,12.338,4.819,1.542,0,0,4.435-1.157,5.014-.964.576,5.59-.577,6.554-.773s10.6.577,10.6-5.011c-4.626-.579-9.255.385-15.229-5.977a31.153,31.153,0,0,1-14.653-5.4c-2.7-1.736-11.374-.385-11.374-.385s-.964,2.891,8.675,2.7c3.085,1.349,4.241,2.506,2.892,2.506s-13.495-1.157-23.711.772c0,0-5.59.577-8.29-.192-2.892-.772-7.324,4.626-7.324,4.626s-2.507,5.013-.577,7.9c1.734,2.892,12.723,15.231,13.3,19.278,5.013,2.892,9.445,4.819,10.6,6.363,1.349,1.54,4.047,1.349,5.013,2.313,1.157.964,12.531-2.7,12.531-2.7s-.773-9.831-12.723-10.024c-1.926,1.734-2.121,4.819-4.434,3.664-2.313-1.351.579-2.507.579-4.05s-2.892-1.349-3.664-1.54-3.664-2.507-4.049-4.241c-.192-1.543-6.939-7.133-6.939-7.133s-2.892-4.626,5.973-2.7c8.867,1.736,8.675,6.554,26.411,4.434a10.992,10.992,0,0,0,6.938-9.451Zm59.182,1.349s6.554-13.686,6.554-16.385c0-2.892,9.831-15.8,9.446-18.121,6.748-.383,45.111,4.049,51.662,10.988,6.747,7.132,10.6,23.519,10.6,33.35-4.241.773-11.759,3.471-15.612,8.1-3.471,0-10.6-1.925-12.916-1.925s-5.013.385-9.061-3.471c-6.556-.383-8.481-.383-10.6-.383-1.925,0-6.166-2.315-6.166-2.315a25.128,25.128,0,0,0-12.916-3.471c-4.434-2.506-6.747-4.049-10.988-4.819v-1.543Z" data-name="Path 3063" transform="translate(118.971 42.014)"/><path d="M271.065,67.176s37.589,1.157,50.509,12.144c-5.4-7.133-28.916-14.844-49.737-14.844-1.928,1.54-.772,2.7-.772,2.7ZM286.1,118.838s3.083,6.747,4.24,8.675,12.914,9.061,22.362,9.833c9.254.772,29.688,1.157,31.229,1.926s7.9,15.229,10.989,17.927c.385,4.049-.385,6.365,5.011,7.518,5.592,1.157,2.122,6.166,9.063,8.29,7.133,1.926,1.926-2.122,5.975-2.122,3.856,0,.385,1.158,5.4.385,5.205-.772-3.471-10.988-5.4-11.759S369,162.785,369,162.785s-3.471,2.7-2.7-5.205c-3.471-3.856-3.856-1.926-4.626-5.013s-9.061-22.747-12.914-27.76c-4.049-5.205-4.819,1.542-13.88-.773-8.866-2.506-8.481-4.819-8.481-4.819s-4.049,3.085-5.975,3.47c-1.928.577-3.085,4.819-3.085,4.819a42.4,42.4,0,0,0-8.29-3.083,9.307,9.307,0,0,0-6.166.773s-2.315,1.54-9.063-3.665C288.415,118.838,288.8,118.838,286.1,118.838Z" data-name="Path 3064" transform="translate(167.175 39.815)"/><path d="M365.241,143.292a31.268,31.268,0,0,1,5.4,2.7c2.506,1.734,6.362.773,6.362.773s-4.626-8.1-11.761-3.471Zm4.626,21.592s3.277,13.687,3.277,19.468c3.083,2.892,5.4,2.507,6.166,5.207s3.858,4.624,6.365,2.7c2.313-1.928,2.313,3.083,2.313,3.083L393,198.618s1.54-7.133,0-7.9-5.4-5.975-6.939-8.675c-.775,1.928-2.509.773-3.277-2.7s-3.471-10.6-3.471-12.531-9.448-1.925-9.448-1.925Zm-46.458-16s-2.122-4.434-12.146-5.977c.387,2.7,1.926,1.543,3.085,2.7s5.4,2.891,5.4,4.432,3.664,2.7,3.664-1.157Zm37.785-45.494c-.579.192,3.47,3.662,3.855,3.855,2.315,1.157,5.973,1.736,8.1-.192.964,1.349,2.506,2.509,3.471,3.858a23.019,23.019,0,0,1,2.891,7.133c1.736,8.1,8.1,17.927,21.594,17.927a36.961,36.961,0,0,1,7.9,2.121c-.385-2.506-2.7-4.434-6.554-5.013,3.856-1.543,5.4-2.507,9.446-2.315a14.741,14.741,0,0,1,9.639,5.014s4.626,0-5.783-8.675c-6.556-2.313-10.989-2.892-11.953-4.435,4.434-.576,8.866-1.542,13.495,2.122,4.819,3.662,4.241,5.205,8.867,5.205-3.665-5.013-2.892-4.626-4.434-7.9-1.542-3.085-6.556-4.047-13.88-2.7-7.132,1.157-6.939,0-6.939,0l.772,2.313s-8.1.964-11.18-8.1a21.568,21.568,0,0,1-2.315-3.085A9.213,9.213,0,0,1,393,114.958c.771,1.349,4.049,2.313,5.4,2.7,4.819,1.349,9.254-1.541,14.071-1.157,3.665.192,6.75,1.926,10.024,3.083-1.734-4.241-3.274-5.781-6.939-7.324-2.7,0-3.664.964-7.324,1.349-3.665.194-10.412.772-20.628-10.216-11.182-6.557-26.411,0-26.411,0ZM217.383,90.281c0,.964-1.156,1.541-2.7,1.541-1.349,0-2.506-.577-2.506-1.541,0-.773,1.156-1.543,2.506-1.543C216.228,88.737,217.383,89.508,217.383,90.281Zm4.049-1.351a1.375,1.375,0,0,1-1.543,1.349,1.49,1.49,0,0,1-1.543-1.349c0-.577.773-1.158,1.543-1.158C220.854,87.773,221.431,88.353,221.431,88.931Zm5.4.191a1.655,1.655,0,0,1-1.349,1.543,1.49,1.49,0,0,1-1.349-1.543,1.316,1.316,0,0,1,1.349-1.349A1.449,1.449,0,0,1,226.829,89.122Zm5.59,0a1.765,1.765,0,0,1-1.928,1.543,1.9,1.9,0,0,1-1.925-1.543c0-.772.964-1.349,1.925-1.349C231.651,87.773,232.419,88.353,232.419,89.122Zm5.977.581c0,.577-.966,1.157-2.122,1.157s-2.313-.576-2.313-1.157c0-.772,1.157-1.158,2.313-1.158S238.4,88.931,238.4,89.7Zm5.592.579a1.752,1.752,0,0,1-1.928,1.541c-1.157,0-1.928-.577-1.928-1.541a1.765,1.765,0,0,1,1.928-1.543A1.9,1.9,0,0,1,243.987,90.281Zm5.4,3.083a1.729,1.729,0,0,1-1.736,1.736,1.66,1.66,0,1,1,0-3.275A1.7,1.7,0,0,1,249.383,93.364Zm4.82.964a1.659,1.659,0,0,1-1.541,1.543,1.492,1.492,0,0,1-1.349-1.543,1.316,1.316,0,0,1,1.349-1.349A1.488,1.488,0,0,1,254.2,94.329Zm4.819,2.313c0,.577-.773.964-1.736.964s-1.734-.383-1.734-.964c0-.385.773-.772,1.734-.772S259.022,96.257,259.022,96.642Zm-.193,1.349c0,.772,1.157,1.157,2.506,1.157s2.506-.385,2.506-1.157c0-.577-1.157-1.157-2.506-1.157S258.83,97.412,258.83,97.991Zm9.254,2.315c0,.577-.772,1.158-1.349,1.158a1.288,1.288,0,0,1-1.349-1.158,1.316,1.316,0,0,1,1.349-1.349A1.447,1.447,0,0,1,268.084,100.305ZM286.2,26.665s-14.651-3.085-29.109-1.157c-2.313,5.4-4.241,8.481-5.013,10.6,4.624.387,7.324,0,7.324,2.313s-6.941,7.326-9.639,9.831c-.383,5.784,3.085,24.1,4.628,26.992,6.323-2.874,21.788-10.515,31.629-47.908a3.367,3.367,0,0,0,.246.351c.244.3.59.663.982,1.058-2.706,9.306-5.88,19.087-10.713,27.64-4.851,8.581-11.381,15.926-20.8,20.311l.275.592c9.561-4.45,16.182-11.9,21.094-20.586,4.9-8.66,8.094-18.561,10.823-27.962l.052-.184-.136-.136q-.561-.547-1.072-1.14c-.165-.205-.3-.27-.289-.3l-.314-.21a.707.707,0,0,0,.032-.11Z" data-name="Path 3065" transform="translate(131.024 15.36)"/></svg>