<svg xmlns="http://www.w3.org/2000/svg" enable-background="new 0 0 24 24" viewBox="0 0 24 24"><path d="M15.826,20c-0.935,0-1.853-0.153-2.728-0.456c-0.575-0.201-1.124-0.467-1.635-0.792c-0.604-0.375-1.154-0.823-1.627-1.327c-1.023-1.063-1.722-2.39-2.012-3.828c-0.059-0.294,0.017-0.599,0.207-0.831C8.222,12.535,8.506,12.4,8.806,12.4h1.76c0.553,0,1,0.448,1,1s-0.447,1-1,1H10.17c0.271,0.603,0.647,1.161,1.116,1.648c0.361,0.385,0.776,0.722,1.241,1.011c0.391,0.248,0.801,0.447,1.228,0.596C14.417,17.883,15.115,18,15.826,18C19.23,18,22,15.309,22,12s-2.77-6-6.174-6c-1.177,0-2.316,0.325-3.294,0.938c-1.183,0.716-2.071,1.799-2.516,3.061C9.832,10.52,9.26,10.792,8.741,10.61C8.22,10.426,7.946,9.855,8.13,9.334c0.599-1.697,1.789-3.152,3.353-4.098C12.766,4.431,14.272,4,15.826,4C20.333,4,24,7.589,24,12S20.333,20,15.826,20z"/><path d="M8.174,20C3.667,20,0,16.411,0,12s3.667-8,8.174-8c1.554,0,3.061,0.431,4.358,1.245c1.549,0.937,2.739,2.392,3.338,4.089c0.184,0.521-0.09,1.092-0.611,1.276c-0.518,0.182-1.091-0.09-1.275-0.611c-0.444-1.261-1.333-2.345-2.501-3.052C10.49,6.325,9.351,6,8.174,6C4.77,6,2,8.691,2,12s2.77,6,6.174,6c0.711,0,1.409-0.117,2.075-0.347c0.423-0.148,0.833-0.347,1.215-0.589c0.474-0.294,0.889-0.631,1.242-1.007c0.474-0.493,0.852-1.053,1.123-1.657h-0.395c-0.553,0-1-0.448-1-1s0.447-1,1-1h1.76c0.3,0,0.584,0.135,0.773,0.367c0.19,0.232,0.266,0.537,0.207,0.831c-0.29,1.438-0.988,2.765-2.02,3.837c-0.465,0.495-1.015,0.943-1.628,1.323c-0.502,0.319-1.051,0.585-1.622,0.785C10.026,19.847,9.108,20,8.174,20z"/></svg>